<?xml version="1.0" standalone="no"?><!DOCTYPE svg PUBLIC "-//W3C//DTD SVG 1.1//EN"
        "http://www.w3.org/Graphics/SVG/1.1/DTD/svg11.dtd">
<svg t="1720578705094" class="icon" viewBox="0 0 1024 1024" version="1.1" xmlns="http://www.w3.org/2000/svg"
     p-id="2007" data-darkreader-inline-fill="" width="200" height="200">
    <path d="M288.814545 256.139636L445.812364 440.785455l53.201454-45.242182-157.044363-184.692364zM474.996364 628.503273l156.997818 184.692363 53.201454-45.242181-157.044363-184.692364z"
          fill="#2E74FF" p-id="2008" style="--darkreader-inline-fill: #003bb0;" data-darkreader-inline-fill=""
          data-spm-anchor-id="a313x.collections_detail.0.i3.4c2a3a813SFudv" class=""></path>
    <path d="M81.454545 93.090909v837.818182h69.818182V93.090909h-69.818182zM930.909091 698.181818a116.363636 116.363636 0 0 1-116.363636 116.363637H272.011636a34.909091 34.909091 0 0 1 0-69.818182H814.545455a46.545455 46.545455 0 0 0 0-93.090909H272.011636a34.909091 34.909091 0 0 1 0-69.818182H814.545455A116.363636 116.363636 0 0 1 930.909091 698.181818z m-325.818182-372.363636a116.363636 116.363636 0 0 1-116.363636 116.363636H272.011636a34.909091 34.909091 0 0 1 0-69.818182H488.727273a46.545455 46.545455 0 1 0 0-93.090909H272.011636a34.909091 34.909091 0 0 1 0-69.818182H488.727273A116.363636 116.363636 0 0 1 605.090909 325.818182z"
          fill="#8a8a8a" p-id="2009" style="--darkreader-inline-fill: #5a6265;" data-darkreader-inline-fill=""
          data-spm-anchor-id="a313x.collections_detail.0.i4.4c2a3a813SFudv" class="selected"></path>
</svg>